<svg xmlns="http://www.w3.org/2000/svg" width="16" height="16" viewBox="0 0 16 16" fill="none">
  <path d="M7.99996 1C7.64873 1 7.38014 1.26859 7.38014 1.61981V10.7682L4.30173 7.68977C4.05381 7.44184 3.66126 7.44184 3.43399 7.68977C3.18607 7.93769 3.18607 8.33024 3.43399 8.55751L7.56609 12.6896C7.69005 12.8136 7.85533 12.8755 7.99996 12.8755C8.14458 12.8755 8.30986 12.8136 8.43383 12.6896L12.5659 8.55751C12.8138 8.30958 12.8138 7.91703 12.5659 7.68977C12.318 7.44184 11.9254 7.44184 11.6982 7.68977L8.61977 10.7682V1.61981C8.61977 1.26859 8.35119 1 7.99996 1Z" fill="#444B54"/>
  <path d="M15.0654 14.6342C15.0654 14.283 14.7968 14.0144 14.4455 14.0144H1.55341C1.20218 14.0144 0.933594 14.283 0.933594 14.6342C0.933594 14.9854 1.20218 15.254 1.55341 15.254H14.4455C14.7968 15.254 15.0654 14.9648 15.0654 14.6342Z" fill="#444B54"/>
</svg>