<svg width="114" height="43" viewBox="0 0 114 43" fill="none" xmlns="http://www.w3.org/2000/svg">
<path d="M20.011 15.2132C19.8272 14.7137 19.3678 14.3474 18.8625 14.3474C18.3418 14.3474 17.8824 14.6971 17.714 15.2132C17.6527 15.3631 17.6221 15.5296 17.6221 15.6794C17.6221 16.412 18.1734 17.028 18.8625 17.028C19.5363 17.028 20.1029 16.4286 20.1029 15.6794C20.1029 15.5296 20.0569 15.3797 20.011 15.2132ZM18.8625 16.412C18.495 16.412 18.204 16.0956 18.204 15.696C18.204 15.5129 18.2806 15.3464 18.3724 15.2299C18.495 15.0967 18.6634 14.9968 18.8625 14.9968C19.0616 14.9968 19.23 15.0967 19.3525 15.2299C19.4597 15.3464 19.521 15.5296 19.521 15.696C19.521 16.0956 19.23 16.412 18.8625 16.412Z" fill="#99C63D"/>
<path d="M20.4858 34.6602V36.1253C20.4858 36.6248 20.302 37.0577 20.011 37.3741C19.7201 37.6904 19.3219 37.8902 18.8625 37.8902C17.9743 37.8902 17.2393 37.1077 17.2393 36.1253V34.6602H20.4858Z" fill="#278B44"/>
<path d="M20.5011 31.4299H17.2393V34.6767H20.5011V31.4299Z" fill="#337F3F"/>
<path d="M20.5011 28.1833H17.2393V31.4301H20.5011V28.1833Z" fill="#378F43"/>
<path d="M20.5011 24.9368H17.2393V28.1835H20.5011V24.9368Z" fill="#42A047"/>
<path d="M20.4858 23.0552V24.9367H17.2393V23.0552C17.2393 22.5058 17.469 22.0063 17.8365 21.6899H19.8885C20.2561 22.0396 20.4858 22.5058 20.4858 23.0552Z" fill="#4EAE4D"/>
<path d="M19.8899 21.6899H17.8379C18.1135 21.4401 18.4811 21.2903 18.8792 21.2903C19.2467 21.3069 19.6143 21.4401 19.8899 21.6899Z" fill="#67BC6B"/>
<path d="M33.1986 34.6599V36.1251C33.1986 36.6246 33.0149 37.0575 32.7239 37.3738C32.433 37.6902 32.0348 37.89 31.5754 37.89C30.6872 37.89 29.9521 37.1074 29.9521 36.1251V34.6599H33.1986Z" fill="#EC7925"/>
<path d="M33.214 31.4299H29.9521V34.6767H33.214V31.4299Z" fill="#F68B20"/>
<path d="M33.214 28.1831H29.9521V31.4298H33.214V28.1831Z" fill="#F89821"/>
<path d="M33.1983 26.2685V28.1832H29.9365V26.2685C29.9365 25.7357 30.1509 25.2529 30.4878 24.9365H32.6317C32.9839 25.2529 33.1983 25.7357 33.1983 26.2685Z" fill="#FAA628"/>
<path d="M32.6462 24.9366H30.5176C30.8085 24.6535 31.1761 24.5037 31.5895 24.5037C31.9877 24.5037 32.3705 24.6702 32.6462 24.9366Z" fill="#FBB54E"/>
<path d="M31.5744 16.5449C30.9006 16.5449 30.334 17.1443 30.334 17.8936C30.334 18.0934 30.3646 18.2932 30.4565 18.4597C30.6556 18.9092 31.069 19.2255 31.5591 19.2255C32.0491 19.2255 32.4626 18.9092 32.6617 18.4597C32.7382 18.2765 32.7842 18.0767 32.7842 17.8936C32.8148 17.1443 32.2635 16.5449 31.5744 16.5449ZM31.5744 18.6095C31.4366 18.6095 31.2834 18.5429 31.1762 18.4763C31.0078 18.3431 30.9006 18.1433 30.9006 17.9102C30.9006 17.5106 31.1916 17.1943 31.5591 17.1943C31.9266 17.1943 32.2176 17.5106 32.2176 17.9102C32.2176 18.1433 32.1104 18.3431 31.9419 18.4763C31.8654 18.5596 31.7428 18.6095 31.5744 18.6095Z" fill="#EC9523"/>
<path d="M14.1176 11.9163V11.9995H10.8711V11.9163C10.8711 10.9506 11.5908 10.1514 12.4943 10.1514C13.3825 10.1514 14.1176 10.9173 14.1176 11.9163Z" fill="#B4E3F9"/>
<path d="M12.4943 7.58741C11.8205 7.58741 11.2539 6.98802 11.2539 6.23877C11.2539 5.48953 11.8052 4.89014 12.4943 4.89014C13.1834 4.89014 13.7347 5.48953 13.7347 6.23877C13.7347 6.98802 13.1681 7.58741 12.4943 7.58741ZM12.4943 5.52283C12.1268 5.52283 11.8358 5.83918 11.8358 6.23877C11.8358 6.63837 12.1268 6.95472 12.4943 6.95472C12.8618 6.95472 13.1528 6.63837 13.1528 6.23877C13.1528 5.83918 12.8618 5.52283 12.4943 5.52283Z" fill="#2C9CC4"/>
<path d="M14.1176 34.6599V36.1251C14.1176 36.6246 13.9338 37.0575 13.6429 37.3738C13.3519 37.6902 12.9538 37.89 12.4943 37.89C11.6062 37.89 10.8711 37.1074 10.8711 36.1251V34.6599H14.1176Z" fill="#297FB8"/>
<path d="M14.1023 31.4299H10.8711V34.6767H14.1023V31.4299Z" fill="#0977BE"/>
<path d="M14.1023 28.1833H10.8711V31.4301H14.1023V28.1833Z" fill="#2086C8"/>
<path d="M14.1023 24.9365H10.8711V28.1832H14.1023V24.9365Z" fill="#2C97D4"/>
<path d="M14.1023 21.6899H10.8711V24.9367H14.1023V21.6899Z" fill="#38A4DC"/>
<path d="M14.1023 18.4597H10.8711V21.7064H14.1023V18.4597Z" fill="#45B2E4"/>
<path d="M14.1023 15.2131H10.8711V18.4599H14.1023V15.2131Z" fill="#59C1EE"/>
<path d="M14.1023 11.9998H10.8711V15.2465H14.1023V11.9998Z" fill="#83D1F5"/>
<path d="M7.76213 34.6602V36.1253C7.76213 36.6248 7.57836 37.0577 7.2874 37.3741C6.99644 37.6904 6.59829 37.8902 6.13888 37.8902C5.25068 37.8902 4.51562 37.1077 4.51562 36.1253V34.6602H7.76213Z" fill="#2D327E"/>
<path d="M7.76181 31.4299H4.5V34.6767H7.76181V31.4299Z" fill="#273C90"/>
<path d="M7.76181 28.1833H4.5V31.4301H7.76181V28.1833Z" fill="#354599"/>
<path d="M7.76181 24.9365H4.5V28.1832H7.76181V24.9365Z" fill="#404EA1"/>
<path d="M7.76181 21.6899H4.5V24.9367H7.76181V21.6899Z" fill="#4655A5"/>
<path d="M7.76181 18.46H4.5V21.7067H7.76181V18.46Z" fill="#5E6CB2"/>
<path d="M7.76181 17.5942V18.46H4.5V17.5942C4.5 16.6285 5.21974 15.8293 6.12325 15.8293C7.02676 15.8293 7.76181 16.6119 7.76181 17.5942Z" fill="#7A85C1"/>
<path d="M6.12322 9.4856C5.44942 9.4856 4.88281 10.085 4.88281 10.8342C4.88281 11.3337 5.11252 11.7666 5.48005 11.9831C5.66381 12.0996 5.8782 12.1829 6.12322 12.1829C6.35293 12.1829 6.58263 12.1163 6.7664 11.9831C7.13392 11.75 7.36363 11.3171 7.36363 10.8342C7.36363 10.1016 6.79702 9.4856 6.12322 9.4856ZM6.12322 11.5502C5.75569 11.5502 5.46473 11.2338 5.46473 10.8342C5.46473 10.4346 5.75569 10.1183 6.12322 10.1183C6.49075 10.1183 6.78171 10.4346 6.78171 10.8342C6.78171 11.2172 6.49075 11.5502 6.12322 11.5502Z" fill="#273D8E"/>
<path d="M26.8432 34.6602V36.1253C26.8432 36.6248 26.6594 37.0577 26.3685 37.3741C26.0775 37.6904 25.664 37.8902 25.2199 37.8902C24.3317 37.8902 23.5967 37.1077 23.5967 36.1253V34.6602H26.8432Z" fill="#EBB220"/>
<path d="M26.8279 31.4299H23.5967V34.6767H26.8279V31.4299Z" fill="#F8BF29"/>
<path d="M26.8279 28.1833H23.5967V31.4301H26.8279V28.1833Z" fill="#FCD738"/>
<path d="M26.8279 24.9368H23.5967V28.1835H26.8279V24.9368Z" fill="#FCE938"/>
<path d="M26.8279 21.6899H23.5967V24.9367H26.8279V21.6899Z" fill="#FFF38D"/>
<path d="M25.4803 18.4598C25.3884 18.4431 25.3118 18.4431 25.2199 18.4431C25.128 18.4431 25.0515 18.4431 24.9596 18.4598C24.1786 18.593 23.5967 19.3256 23.5967 20.1913V21.6898H26.8279V20.208C26.8585 19.3256 26.2613 18.593 25.4803 18.4598Z" fill="#FFF38D"/>
<path d="M26.0775 11.9996C25.8631 11.7832 25.5721 11.6167 25.2199 11.6167C24.8983 11.6167 24.6074 11.7499 24.3623 11.9996C24.1173 12.2494 23.9795 12.599 23.9795 12.9653C23.9795 13.6979 24.5308 14.314 25.2199 14.314C25.909 14.314 26.4603 13.7146 26.4603 12.9653C26.4756 12.5824 26.3072 12.2327 26.0775 11.9996ZM25.2352 13.6646C24.8677 13.6646 24.5767 13.3483 24.5767 12.9487C24.5767 12.5491 24.8677 12.2327 25.2352 12.2327C25.6027 12.2327 25.8937 12.5491 25.8937 12.9487C25.8937 13.3483 25.6027 13.6646 25.2352 13.6646Z" fill="#EBC61C"/>
<path d="M40.0732 36.8911L45.0196 29.2155L40.2876 22.0062H44.698L47.1175 26.102L49.0471 23.0051C49.4299 22.3724 50.0884 21.9895 50.7928 21.9895H53.9321L49.2921 29.049L54.3609 36.8745H49.9046L47.1175 32.2625L44.2845 36.8911H40.0732Z" fill="url(#paint0_linear_2872_543)"/>
<path d="M62.3243 36.8911L55.5557 16.3452H59.7057L64.4835 31.5632L68.6336 17.927C68.9245 16.9946 69.7208 16.3619 70.6396 16.3619H73.1664L66.3978 36.9244H62.3243V36.8911Z" fill="white"/>
<path d="M75.585 19.9749V16.3452H77.1163C78.2802 16.3452 79.2143 17.3775 79.2143 18.6262V19.9915L75.585 19.9749ZM75.585 36.8911V21.9895H77.1163C78.2802 21.9895 79.2143 23.0218 79.2143 24.2705V36.8745H75.6003V36.8911H75.585Z" fill="white"/>
<path d="M82.4463 36.8911V33.8275L87.5764 27.4007C88.4186 26.3517 89.0465 25.6025 89.4446 25.1696C89.0312 25.1862 88.4646 25.2029 87.7754 25.2362L85.0496 25.2528C83.8858 25.2528 82.9363 24.2372 82.9363 22.9718V22.0061H94.2684V24.7866L89.0312 31.33L87.1935 33.5111C88.1889 33.4445 88.8321 33.4113 89.0618 33.4113H94.6666V36.8744L82.4463 36.8911Z" fill="white"/>
<path d="M40.0732 36.8912L45.0196 29.2156L47.1328 26.0854L49.0624 22.9885C49.4452 22.3558 50.1037 21.9729 50.8081 21.9729H53.9474L49.3074 29.0324L45.0349 29.2156L47.1482 32.2792L44.3151 36.8912H40.0732Z" fill="url(#paint1_linear_2872_543)"/>
<path d="M93.3037 17.6272C93.3037 17.2276 93.3956 16.8447 93.5794 16.4784C93.7631 16.1121 94.0235 15.8457 94.345 15.6459C94.6666 15.4461 95.0188 15.3462 95.4017 15.3462C95.7692 15.3462 96.1214 15.4461 96.4583 15.6459C96.7799 15.8457 97.0403 16.1287 97.224 16.4784C97.4078 16.828 97.4997 17.211 97.4997 17.6272C97.4997 18.0268 97.4078 18.4098 97.224 18.7594C97.0403 19.1091 96.7952 19.3921 96.4583 19.6086C96.1367 19.825 95.7692 19.9249 95.3864 19.9249C95.0035 19.9249 94.636 19.825 94.3144 19.6086C93.9928 19.3921 93.7325 19.1257 93.5487 18.7594C93.3956 18.4098 93.3037 18.0268 93.3037 17.6272ZM93.5947 17.6272C93.5947 17.9769 93.6712 18.3099 93.8397 18.6096C94.0081 18.9093 94.2225 19.159 94.4982 19.3255C94.7738 19.5087 95.0801 19.5919 95.4017 19.5919C95.7233 19.5919 96.0296 19.5087 96.3052 19.3255C96.5808 19.1424 96.8105 18.9093 96.9637 18.6096C97.1321 18.3099 97.2087 17.9769 97.2087 17.6272C97.2087 17.2776 97.1321 16.9446 96.9637 16.6449C96.7952 16.3452 96.5808 16.0954 96.3052 15.9289C96.0296 15.7458 95.7233 15.6625 95.4017 15.6625C95.0801 15.6625 94.7738 15.7458 94.4982 15.9289C94.2225 16.1121 93.9928 16.3452 93.8397 16.6449C93.6712 16.9446 93.5947 17.2609 93.5947 17.6272ZM96.2593 17.0778C96.2593 17.2443 96.2133 17.3775 96.1367 17.5107C96.0602 17.6439 95.953 17.7271 95.7998 17.7937L96.4736 18.9925H95.9989L95.417 17.9103H95.0342V18.9925H94.6207V16.2619H95.3557C95.662 16.2619 95.8917 16.3285 96.0449 16.4617C96.1827 16.5949 96.2593 16.7947 96.2593 17.0778ZM95.0495 17.5273H95.3557C95.5089 17.5273 95.6314 17.4774 95.7233 17.3941C95.8152 17.3109 95.8611 17.211 95.8611 17.0778C95.8611 16.9279 95.8152 16.8114 95.7386 16.7448C95.662 16.6782 95.5242 16.6449 95.3557 16.6449H95.0648V17.5273H95.0495Z" fill="white"/>
<defs>
<linearGradient id="paint0_linear_2872_543" x1="47.1462" y1="18.3982" x2="47.222" y2="35.1202" gradientUnits="userSpaceOnUse">
<stop stop-color="#2AA7DF"/>
<stop offset="0.3147" stop-color="#2BA5DE"/>
<stop offset="0.514" stop-color="#279DD8"/>
<stop offset="0.6811" stop-color="#218ECB"/>
<stop offset="0.8305" stop-color="#1D79BC"/>
<stop offset="0.9668" stop-color="#1060AA"/>
<stop offset="1" stop-color="#1979BA"/>
</linearGradient>
<linearGradient id="paint1_linear_2872_543" x1="46.9683" y1="18.4689" x2="47.0436" y2="35.0868" gradientUnits="userSpaceOnUse">
<stop stop-color="#2AA7DF"/>
<stop offset="0.1969" stop-color="#269FDA"/>
<stop offset="0.5167" stop-color="#1F87C7"/>
<stop offset="0.9175" stop-color="#1161AB"/>
<stop offset="1" stop-color="#1979BA"/>
</linearGradient>
</defs>
</svg>
