<svg width="300" height="100" viewBox="0 0 114 43" fill="none" xmlns="http://www.w3.org/2000/svg">
<path d="M20.011 15.213C19.8272 14.7135 19.3678 14.3472 18.8625 14.3472C18.3418 14.3472 17.8824 14.6969 17.714 15.213C17.6527 15.3629 17.6221 15.5294 17.6221 15.6792C17.6221 16.4118 18.1734 17.0279 18.8625 17.0279C19.5363 17.0279 20.1029 16.4285 20.1029 15.6792C20.1029 15.5294 20.0569 15.3795 20.011 15.213ZM18.8625 16.4118C18.495 16.4118 18.204 16.0955 18.204 15.6959C18.204 15.5127 18.2806 15.3462 18.3724 15.2297C18.495 15.0965 18.6634 14.9966 18.8625 14.9966C19.0616 14.9966 19.23 15.0965 19.3525 15.2297C19.4597 15.3462 19.521 15.5294 19.521 15.6959C19.521 16.0955 19.23 16.4118 18.8625 16.4118Z" fill="#99C63D"/>
<path d="M20.4858 34.6599V36.1251C20.4858 36.6246 20.302 37.0575 20.011 37.3738C19.7201 37.6902 19.3219 37.89 18.8625 37.89C17.9743 37.89 17.2393 37.1074 17.2393 36.1251V34.6599H20.4858Z" fill="#278B44"/>
<path d="M20.5011 31.4298H17.2393V34.6765H20.5011V31.4298Z" fill="#337F3F"/>
<path d="M20.5011 28.1832H17.2393V31.4299H20.5011V28.1832Z" fill="#378F43"/>
<path d="M20.5011 24.9365H17.2393V28.1832H20.5011V24.9365Z" fill="#42A047"/>
<path d="M20.4858 23.055V24.9365H17.2393V23.055C17.2393 22.5056 17.469 22.0061 17.8365 21.6898H19.8885C20.2561 22.0394 20.4858 22.5056 20.4858 23.055Z" fill="#4EAE4D"/>
<path d="M19.8899 21.6897H17.8379C18.1135 21.4399 18.4811 21.2901 18.8792 21.2901C19.2467 21.3067 19.6143 21.4399 19.8899 21.6897Z" fill="#67BC6B"/>
<path d="M33.1986 34.6599V36.125C33.1986 36.6245 33.0149 37.0574 32.7239 37.3738C32.433 37.6901 32.0348 37.8899 31.5754 37.8899C30.6872 37.8899 29.9521 37.1074 29.9521 36.125V34.6599H33.1986Z" fill="#EC7925"/>
<path d="M33.214 31.4297H29.9521V34.6765H33.214V31.4297Z" fill="#F68B20"/>
<path d="M33.214 28.183H29.9521V31.4297H33.214V28.183Z" fill="#F89821"/>
<path d="M33.1983 26.2683V28.1831H29.9365V26.2683C29.9365 25.7355 30.1509 25.2527 30.4878 24.9363H32.6317C32.9839 25.2527 33.1983 25.7355 33.1983 26.2683Z" fill="#FAA628"/>
<path d="M32.6462 24.9364H30.5176C30.8085 24.6533 31.1761 24.5035 31.5895 24.5035C31.9877 24.5035 32.3705 24.67 32.6462 24.9364Z" fill="#FBB54E"/>
<path d="M31.5744 16.5448C30.9006 16.5448 30.334 17.1442 30.334 17.8934C30.334 18.0932 30.3646 18.293 30.4565 18.4595C30.6556 18.9091 31.069 19.2254 31.5591 19.2254C32.0491 19.2254 32.4626 18.9091 32.6617 18.4595C32.7382 18.2764 32.7842 18.0766 32.7842 17.8934C32.8148 17.1442 32.2635 16.5448 31.5744 16.5448ZM31.5744 18.6094C31.4366 18.6094 31.2834 18.5428 31.1762 18.4762C31.0078 18.343 30.9006 18.1432 30.9006 17.9101C30.9006 17.5105 31.1916 17.1941 31.5591 17.1941C31.9266 17.1941 32.2176 17.5105 32.2176 17.9101C32.2176 18.1432 32.1104 18.343 31.9419 18.4762C31.8654 18.5594 31.7428 18.6094 31.5744 18.6094Z" fill="#EC9523"/>
<path d="M14.1176 11.9163V11.9995H10.8711V11.9163C10.8711 10.9506 11.5908 10.1514 12.4943 10.1514C13.3825 10.1514 14.1176 10.9173 14.1176 11.9163Z" fill="#B4E3F9"/>
<path d="M12.4943 7.58729C11.8205 7.58729 11.2539 6.9879 11.2539 6.23865C11.2539 5.48941 11.8052 4.89001 12.4943 4.89001C13.1834 4.89001 13.7347 5.48941 13.7347 6.23865C13.7347 6.9879 13.1681 7.58729 12.4943 7.58729ZM12.4943 5.52271C12.1268 5.52271 11.8358 5.83906 11.8358 6.23865C11.8358 6.63825 12.1268 6.9546 12.4943 6.9546C12.8618 6.9546 13.1528 6.63825 13.1528 6.23865C13.1528 5.83906 12.8618 5.52271 12.4943 5.52271Z" fill="#2C9CC4"/>
<path d="M14.1176 34.6599V36.1251C14.1176 36.6246 13.9338 37.0575 13.6429 37.3738C13.3519 37.6902 12.9538 37.89 12.4943 37.89C11.6062 37.89 10.8711 37.1074 10.8711 36.1251V34.6599H14.1176Z" fill="#297FB8"/>
<path d="M14.1023 31.4298H10.8711V34.6765H14.1023V31.4298Z" fill="#0977BE"/>
<path d="M14.1023 28.1832H10.8711V31.4299H14.1023V28.1832Z" fill="#2086C8"/>
<path d="M14.1023 24.9364H10.8711V28.1831H14.1023V24.9364Z" fill="#2C97D4"/>
<path d="M14.1023 21.6898H10.8711V24.9365H14.1023V21.6898Z" fill="#38A4DC"/>
<path d="M14.1023 18.4597H10.8711V21.7064H14.1023V18.4597Z" fill="#45B2E4"/>
<path d="M14.1023 15.213H10.8711V18.4597H14.1023V15.213Z" fill="#59C1EE"/>
<path d="M14.1023 11.9995H10.8711V15.2462H14.1023V11.9995Z" fill="#83D1F5"/>
<path d="M7.76213 34.6599V36.125C7.76213 36.6245 7.57836 37.0574 7.2874 37.3738C6.99644 37.6901 6.59829 37.8899 6.13888 37.8899C5.25068 37.8899 4.51562 37.1074 4.51562 36.125V34.6599H7.76213Z" fill="#2D327E"/>
<path d="M7.76181 31.4297H4.5V34.6765H7.76181V31.4297Z" fill="#273C90"/>
<path d="M7.76181 28.1831H4.5V31.4298H7.76181V28.1831Z" fill="#354599"/>
<path d="M7.76181 24.9363H4.5V28.1831H7.76181V24.9363Z" fill="#404EA1"/>
<path d="M7.76181 21.6897H4.5V24.9364H7.76181V21.6897Z" fill="#4655A5"/>
<path d="M7.76181 18.4596H4.5V21.7063H7.76181V18.4596Z" fill="#5E6CB2"/>
<path d="M7.76181 17.5939V18.4597H4.5V17.5939C4.5 16.6282 5.21974 15.829 6.12325 15.829C7.02676 15.829 7.76181 16.6116 7.76181 17.5939Z" fill="#7A85C1"/>
<path d="M6.12322 9.48535C5.44942 9.48535 4.88281 10.0847 4.88281 10.834C4.88281 11.3335 5.11252 11.7664 5.48005 11.9828C5.66381 12.0994 5.8782 12.1826 6.12322 12.1826C6.35293 12.1826 6.58263 12.116 6.7664 11.9828C7.13392 11.7497 7.36363 11.3168 7.36363 10.834C7.36363 10.1014 6.79702 9.48535 6.12322 9.48535ZM6.12322 11.5499C5.75569 11.5499 5.46473 11.2336 5.46473 10.834C5.46473 10.4344 5.75569 10.118 6.12322 10.118C6.49075 10.118 6.78171 10.4344 6.78171 10.834C6.78171 11.2169 6.49075 11.5499 6.12322 11.5499Z" fill="#273D8E"/>
<path d="M26.8432 34.6602V36.1253C26.8432 36.6248 26.6594 37.0577 26.3685 37.3741C26.0775 37.6904 25.664 37.8902 25.2199 37.8902C24.3317 37.8902 23.5967 37.1077 23.5967 36.1253V34.6602H26.8432Z" fill="#EBB220"/>
<path d="M26.8279 31.4299H23.5967V34.6766H26.8279V31.4299Z" fill="#F8BF29"/>
<path d="M26.8279 28.1832H23.5967V31.4299H26.8279V28.1832Z" fill="#FCD738"/>
<path d="M26.8279 24.9366H23.5967V28.1833H26.8279V24.9366Z" fill="#FCE938"/>
<path d="M26.8279 21.6898H23.5967V24.9365H26.8279V21.6898Z" fill="#FFF38D"/>
<path d="M25.4803 18.4596C25.3884 18.443 25.3118 18.443 25.2199 18.443C25.128 18.443 25.0515 18.443 24.9596 18.4596C24.1786 18.5928 23.5967 19.3254 23.5967 20.1912V21.6897H26.8279V20.2079C26.8585 19.3254 26.2613 18.5928 25.4803 18.4596Z" fill="#FFF38D"/>
<path d="M26.0775 11.9996C25.8631 11.7831 25.5721 11.6166 25.2199 11.6166C24.8983 11.6166 24.6074 11.7498 24.3623 11.9996C24.1173 12.2493 23.9795 12.599 23.9795 12.9653C23.9795 13.6979 24.5308 14.3139 25.2199 14.3139C25.909 14.3139 26.4603 13.7145 26.4603 12.9653C26.4756 12.5823 26.3072 12.2327 26.0775 11.9996ZM25.2352 13.6646C24.8677 13.6646 24.5767 13.3482 24.5767 12.9486C24.5767 12.549 24.8677 12.2327 25.2352 12.2327C25.6027 12.2327 25.8937 12.549 25.8937 12.9486C25.8937 13.3482 25.6027 13.6646 25.2352 13.6646Z" fill="#EBC61C"/>
<path d="M40.0732 36.8911L45.0196 29.2155L40.2876 22.0061H44.698L47.1175 26.102L49.0471 23.0051C49.4299 22.3724 50.0884 21.9894 50.7928 21.9894H53.9321L49.2921 29.049L54.3609 36.8744H49.9046L47.1175 32.2624L44.2845 36.8911H40.0732Z" fill="url(#paint0_linear_2758_20595)"/>
<path d="M62.3243 36.8911L55.5557 16.3452H59.7057L64.4835 31.5631L68.6336 17.9269C68.9245 16.9945 69.7208 16.3618 70.6396 16.3618H73.1664L66.3978 36.9244H62.3243V36.8911Z" fill="#444444"/>
<path d="M75.585 19.9748V16.3452H77.1163C78.2802 16.3452 79.2143 17.3774 79.2143 18.6262V19.9915L75.585 19.9748ZM75.585 36.8911V21.9895H77.1163C78.2802 21.9895 79.2143 23.0217 79.2143 24.2705V36.8744H75.6003V36.8911H75.585Z" fill="#444444"/>
<path d="M82.4463 36.891V33.8274L87.5764 27.4006C88.4186 26.3517 89.0465 25.6024 89.4446 25.1695C89.0312 25.1862 88.4646 25.2028 87.7754 25.2361L85.0496 25.2528C83.8858 25.2528 82.9363 24.2371 82.9363 22.9717V22.006H94.2684V24.7866L89.0312 31.33L87.1935 33.5111C88.1889 33.4445 88.8321 33.4112 89.0618 33.4112H94.6666V36.8744L82.4463 36.891Z" fill="#444444"/>
<path d="M40.0732 36.8911L45.0196 29.2155L47.1328 26.0854L49.0624 22.9885C49.4452 22.3558 50.1037 21.9728 50.8081 21.9728H53.9474L49.3074 29.0324L45.0349 29.2155L47.1482 32.2791L44.3151 36.8911H40.0732Z" fill="url(#paint1_linear_2758_20595)"/>
<path d="M93.3037 17.6272C93.3037 17.2276 93.3956 16.8447 93.5794 16.4784C93.7631 16.1121 94.0235 15.8457 94.345 15.6459C94.6666 15.4461 95.0188 15.3462 95.4017 15.3462C95.7692 15.3462 96.1214 15.4461 96.4583 15.6459C96.7799 15.8457 97.0403 16.1287 97.224 16.4784C97.4078 16.828 97.4997 17.211 97.4997 17.6272C97.4997 18.0268 97.4078 18.4098 97.224 18.7594C97.0403 19.1091 96.7952 19.3921 96.4583 19.6086C96.1367 19.825 95.7692 19.9249 95.3864 19.9249C95.0035 19.9249 94.636 19.825 94.3144 19.6086C93.9928 19.3921 93.7325 19.1257 93.5487 18.7594C93.3956 18.4098 93.3037 18.0268 93.3037 17.6272ZM93.5947 17.6272C93.5947 17.9769 93.6712 18.3099 93.8397 18.6096C94.0081 18.9093 94.2225 19.159 94.4982 19.3255C94.7738 19.5087 95.0801 19.5919 95.4017 19.5919C95.7233 19.5919 96.0296 19.5087 96.3052 19.3255C96.5808 19.1424 96.8105 18.9093 96.9637 18.6096C97.1321 18.3099 97.2087 17.9769 97.2087 17.6272C97.2087 17.2776 97.1321 16.9446 96.9637 16.6449C96.7952 16.3452 96.5808 16.0954 96.3052 15.9289C96.0296 15.7458 95.7233 15.6625 95.4017 15.6625C95.0801 15.6625 94.7738 15.7458 94.4982 15.9289C94.2225 16.1121 93.9928 16.3452 93.8397 16.6449C93.6712 16.9446 93.5947 17.2609 93.5947 17.6272ZM96.2593 17.0778C96.2593 17.2443 96.2133 17.3775 96.1367 17.5107C96.0602 17.6439 95.953 17.7271 95.7998 17.7937L96.4736 18.9925H95.9989L95.417 17.9103H95.0342V18.9925H94.6207V16.2619H95.3557C95.662 16.2619 95.8917 16.3285 96.0449 16.4617C96.1827 16.5949 96.2593 16.7947 96.2593 17.0778ZM95.0495 17.5273H95.3557C95.5089 17.5273 95.6314 17.4774 95.7233 17.3941C95.8152 17.3109 95.8611 17.211 95.8611 17.0778C95.8611 16.9279 95.8152 16.8114 95.7386 16.7448C95.662 16.6782 95.5242 16.6449 95.3557 16.6449H95.0648V17.5273H95.0495Z" fill="#444444"/>
<defs>
<linearGradient id="paint0_linear_2758_20595" x1="47.1462" y1="18.3981" x2="47.222" y2="35.1202" gradientUnits="userSpaceOnUse">
<stop stop-color="#2AA7DF"/>
<stop offset="0.3147" stop-color="#2BA5DE"/>
<stop offset="0.514" stop-color="#279DD8"/>
<stop offset="0.6811" stop-color="#218ECB"/>
<stop offset="0.8305" stop-color="#1D79BC"/>
<stop offset="0.9668" stop-color="#1060AA"/>
<stop offset="1" stop-color="#1979BA"/>
</linearGradient>
<linearGradient id="paint1_linear_2758_20595" x1="46.9683" y1="18.4688" x2="47.0436" y2="35.0868" gradientUnits="userSpaceOnUse">
<stop stop-color="#2AA7DF"/>
<stop offset="0.1969" stop-color="#269FDA"/>
<stop offset="0.5167" stop-color="#1F87C7"/>
<stop offset="0.9175" stop-color="#1161AB"/>
<stop offset="1" stop-color="#1979BA"/>
</linearGradient>
</defs>
</svg>
